# xmcd CD database file
#
# Track frame offsets:
#	150
#	10863
#	33611
#	49566
#	67103
#	89986
#	112111
#	131356
#	151613
#	172775
#	191445
#	213619
#	236995
#	254367
#	272470
#	298432
#	316695
#
# Disc length: 4561 seconds
#
# Revision: 0
# Processed by: cddbd v1.5.2PL0 Copyright (c) Steve Scherf et al.
# Submitted via: CDex 1.50beta10
#
DISCID=f711cf11
DTITLE=Jazz At The Movies Band - Sax at the Movies   1+2
DYEAR=2014
DGENRE=Jazz
TTITLE0=Tango from 'Scent of a Woman'
TTITLE1=Unchained Melody, from 'Ghost'
TTITLE2=The Crying Game
TTITLE3=A Man and a Woman
TTITLE4=The Rose
TTITLE5=Somewhere in Time
TTITLE6=The Hallway, Love Theme from 'The Prince of Tides'
TTITLE7=I Will Always Love You, from 'The Bodyguard'
TTITLE8=Love Theme from 'Cousins'
TTITLE9=As Time Goes By, from 'Casabalanca'&'Sleepless in Seatle'
TTITLE10=This One's From The Heart
TTITLE11=Last Tango In Paris
TTITLE12=Can You Read My Mind
TTITLE13=Take My Breath Away
TTITLE14=Somewhere Out There
TTITLE15=Endless Love
TTITLE16=The Way We Were
EXTD=YEAR: 2014
EXTT0=
EXTT1=
EXTT2=
EXTT3=
EXTT4=
EXTT5=
EXTT6=
EXTT7=
EXTT8=
EXTT9=
EXTT10=
EXTT11=
EXTT12=
EXTT13=
EXTT14=
EXTT15=
EXTT16=
PLAYORDER=
